<svg width="20" height="20"  id="Layer_1" data-name="Layer 1" xmlns="http://www.w3.org/2000/svg" viewBox="0 0 48 48"><defs>

<style>
.cls-1
{fill:#877EFF;
stroke:#000;
stroke-linecap:round;
stroke-linejoin:round;
stroke-width:2px;
}
</style></defs><title>drug_4</title><path class="cls-1" d="M12.84,24H4V12.38A7.71,7.71,0,0,1,4.39,10a7.87,7.87,0,0,1,15.29,1.34" fill="#877EFF"/><path class="cls-1" d="M20,32v4.36A8,8,0,0,1,6.34,42.19,7.79,7.79,0,0,1,4,36.62V24" fill="#877EFF"/><path class="cls-1" d="M33.36,22,22.22,33.17,14,24.95a6.42,6.42,0,0,1-.61-.7A7.42,7.42,0,0,1,12.56,23a7.86,7.86,0,0,1,7.67-11.42,7.79,7.79,0,0,1,4.92,2.27Z"/><path class="cls-1" d="M41.57,41.38a7.87,7.87,0,0,1-11.14,0l-8.22-8.22L33.36,22l8.22,8.22A7.88,7.88,0,0,1,41.57,41.38Z" fill="#877EFF"/><rect class="cls-1" x="-156" y="-360" width="24" height="24"/></svg>